<svg width="59" height="93" viewBox="0 0 59 93" fill="none" xmlns="http://www.w3.org/2000/svg">
<path d="M26.5 91C26.5 92.1046 27.3954 93 28.5 93C29.6046 93 30.5 92.1046 30.5 91H26.5ZM29.9142 1.08579C29.1332 0.304738 27.8668 0.304738 27.0858 1.08579L14.3579 13.8137C13.5768 14.5948 13.5768 15.8611 14.3579 16.6421C15.1389 17.4232 16.4052 17.4232 17.1863 16.6421L28.5 5.32843L39.8137 16.6421C40.5948 17.4232 41.8611 17.4232 42.6421 16.6421C43.4232 15.8611 43.4232 14.5948 42.6421 13.8137L29.9142 1.08579ZM30.5 91V2.5H26.5V91H30.5Z" fill="#FFBFBF"/>
<rect y="39" width="59" height="19" fill="#FFFCFC"/>
<path d="M6.68359 51.6172V44H8.38281V53H6.85352L6.68359 51.6172ZM2.67578 49.9062V49.7832C2.67578 49.2988 2.73047 48.8594 2.83984 48.4648C2.94922 48.0664 3.10938 47.7246 3.32031 47.4395C3.53125 47.1543 3.79102 46.9336 4.09961 46.7773C4.4082 46.6211 4.75977 46.543 5.1543 46.543C5.52539 46.543 5.84961 46.6211 6.12695 46.7773C6.4082 46.9336 6.64648 47.1562 6.8418 47.4453C7.04102 47.7305 7.20117 48.0684 7.32227 48.459C7.44336 48.8457 7.53125 49.2695 7.58594 49.7305V50C7.53125 50.4414 7.44336 50.8516 7.32227 51.2305C7.20117 51.6094 7.04102 51.9414 6.8418 52.2266C6.64648 52.5078 6.4082 52.7266 6.12695 52.8828C5.8457 53.0391 5.51758 53.1172 5.14258 53.1172C4.74805 53.1172 4.39648 53.0371 4.08789 52.877C3.7832 52.7168 3.52539 52.4922 3.31445 52.2031C3.10742 51.9141 2.94922 51.5742 2.83984 51.1836C2.73047 50.793 2.67578 50.3672 2.67578 49.9062ZM4.36328 49.7832V49.9062C4.36328 50.168 4.38281 50.4121 4.42188 50.6387C4.46484 50.8652 4.5332 51.0664 4.62695 51.2422C4.72461 51.4141 4.84961 51.5488 5.00195 51.6465C5.1582 51.7402 5.34766 51.7871 5.57031 51.7871C5.85938 51.7871 6.09766 51.7227 6.28516 51.5938C6.47266 51.4609 6.61523 51.2793 6.71289 51.0488C6.81445 50.8184 6.87305 50.5527 6.88867 50.252V49.4844C6.87695 49.2383 6.8418 49.0176 6.7832 48.8223C6.72852 48.623 6.64648 48.4531 6.53711 48.3125C6.43164 48.1719 6.29883 48.0625 6.13867 47.9844C5.98242 47.9062 5.79688 47.8672 5.58203 47.8672C5.36328 47.8672 5.17578 47.918 5.01953 48.0195C4.86328 48.1172 4.73633 48.252 4.63867 48.4238C4.54492 48.5957 4.47461 48.7988 4.42773 49.0332C4.38477 49.2637 4.36328 49.5137 4.36328 49.7832ZM11.3887 48.043V53H9.70117V46.6602H11.2891L11.3887 48.043ZM13.2988 46.6191L13.2695 48.1836C13.1875 48.1719 13.0879 48.1621 12.9707 48.1543C12.8574 48.1426 12.7539 48.1367 12.6602 48.1367C12.4219 48.1367 12.2148 48.168 12.0391 48.2305C11.8672 48.2891 11.7227 48.377 11.6055 48.4941C11.4922 48.6113 11.4062 48.7539 11.3477 48.9219C11.293 49.0898 11.2617 49.2812 11.2539 49.4961L10.9141 49.3906C10.9141 48.9805 10.9551 48.6035 11.0371 48.2598C11.1191 47.9121 11.2383 47.6094 11.3945 47.3516C11.5547 47.0938 11.75 46.8945 11.9805 46.7539C12.2109 46.6133 12.4746 46.543 12.7715 46.543C12.8652 46.543 12.9609 46.5508 13.0586 46.5664C13.1562 46.5781 13.2363 46.5957 13.2988 46.6191ZM17.3184 51.5703V48.7461C17.3184 48.543 17.2852 48.3691 17.2188 48.2246C17.1523 48.0762 17.0488 47.9609 16.9082 47.8789C16.7715 47.7969 16.5938 47.7559 16.375 47.7559C16.1875 47.7559 16.0254 47.7891 15.8887 47.8555C15.752 47.918 15.6465 48.0098 15.5723 48.1309C15.498 48.248 15.4609 48.3867 15.4609 48.5469H13.7734C13.7734 48.2773 13.8359 48.0215 13.9609 47.7793C14.0859 47.5371 14.2676 47.3242 14.5059 47.1406C14.7441 46.9531 15.0273 46.8066 15.3555 46.7012C15.6875 46.5957 16.0586 46.543 16.4688 46.543C16.9609 46.543 17.3984 46.625 17.7812 46.7891C18.1641 46.9531 18.4648 47.1992 18.6836 47.5273C18.9062 47.8555 19.0176 48.2656 19.0176 48.7578V51.4707C19.0176 51.8184 19.0391 52.1035 19.082 52.3262C19.125 52.5449 19.1875 52.7363 19.2695 52.9004V53H17.5645C17.4824 52.8281 17.4199 52.6133 17.377 52.3555C17.3379 52.0938 17.3184 51.832 17.3184 51.5703ZM17.541 49.1387L17.5527 50.0938H16.6094C16.3867 50.0938 16.1934 50.1191 16.0293 50.1699C15.8652 50.2207 15.7305 50.293 15.625 50.3867C15.5195 50.4766 15.4414 50.582 15.3906 50.7031C15.3438 50.8242 15.3203 50.957 15.3203 51.1016C15.3203 51.2461 15.3535 51.377 15.4199 51.4941C15.4863 51.6074 15.582 51.6973 15.707 51.7637C15.832 51.8262 15.9785 51.8574 16.1465 51.8574C16.4004 51.8574 16.6211 51.8066 16.8086 51.7051C16.9961 51.6035 17.1406 51.4785 17.2422 51.3301C17.3477 51.1816 17.4023 51.041 17.4062 50.9082L17.8516 51.623C17.7891 51.7832 17.7031 51.9492 17.5938 52.1211C17.4883 52.293 17.3535 52.4551 17.1895 52.6074C17.0254 52.7559 16.8281 52.8789 16.5977 52.9766C16.3672 53.0703 16.0938 53.1172 15.7773 53.1172C15.375 53.1172 15.0098 53.0371 14.6816 52.877C14.3574 52.7129 14.0996 52.4883 13.9082 52.2031C13.7207 51.9141 13.627 51.5859 13.627 51.2188C13.627 50.8867 13.6895 50.5918 13.8145 50.334C13.9395 50.0762 14.123 49.8594 14.3652 49.6836C14.6113 49.5039 14.918 49.3691 15.2852 49.2793C15.6523 49.1855 16.0781 49.1387 16.5625 49.1387H17.541ZM24.332 46.6602H25.8613V52.7891C25.8613 53.3672 25.7324 53.8574 25.4746 54.2598C25.2207 54.666 24.8652 54.9727 24.4082 55.1797C23.9512 55.3906 23.4199 55.4961 22.8145 55.4961C22.5488 55.4961 22.2676 55.4609 21.9707 55.3906C21.6777 55.3203 21.3965 55.2109 21.127 55.0625C20.8613 54.9141 20.6387 54.7266 20.459 54.5L21.2031 53.5039C21.3984 53.7305 21.625 53.9062 21.8828 54.0312C22.1406 54.1602 22.4258 54.2246 22.7383 54.2246C23.043 54.2246 23.3008 54.168 23.5117 54.0547C23.7227 53.9453 23.8848 53.7832 23.998 53.5684C24.1113 53.3574 24.168 53.1016 24.168 52.8008V48.125L24.332 46.6602ZM20.0664 49.9062V49.7832C20.0664 49.2988 20.125 48.8594 20.2422 48.4648C20.3633 48.0664 20.5332 47.7246 20.752 47.4395C20.9746 47.1543 21.2441 46.9336 21.5605 46.7773C21.877 46.6211 22.2344 46.543 22.6328 46.543C23.0547 46.543 23.4082 46.6211 23.6934 46.7773C23.9785 46.9336 24.2129 47.1562 24.3965 47.4453C24.5801 47.7305 24.7227 48.0684 24.8242 48.459C24.9297 48.8457 25.0117 49.2695 25.0703 49.7305V50C25.0117 50.4414 24.9238 50.8516 24.8066 51.2305C24.6895 51.6094 24.5352 51.9414 24.3438 52.2266C24.1523 52.5078 23.9141 52.7266 23.6289 52.8828C23.3477 53.0391 23.0117 53.1172 22.6211 53.1172C22.2305 53.1172 21.877 53.0371 21.5605 52.877C21.248 52.7168 20.9805 52.4922 20.7578 52.2031C20.5352 51.9141 20.3633 51.5742 20.2422 51.1836C20.125 50.793 20.0664 50.3672 20.0664 49.9062ZM21.7539 49.7832V49.9062C21.7539 50.168 21.7793 50.4121 21.8301 50.6387C21.8809 50.8652 21.959 51.0664 22.0645 51.2422C22.1738 51.4141 22.3086 51.5488 22.4688 51.6465C22.6328 51.7402 22.8262 51.7871 23.0488 51.7871C23.3574 51.7871 23.6094 51.7227 23.8047 51.5938C24 51.4609 24.1465 51.2793 24.2441 51.0488C24.3418 50.8184 24.3984 50.5527 24.4141 50.252V49.4844C24.4062 49.2383 24.373 49.0176 24.3145 48.8223C24.2559 48.623 24.1738 48.4531 24.0684 48.3125C23.9629 48.1719 23.8262 48.0625 23.6582 47.9844C23.4902 47.9062 23.291 47.8672 23.0605 47.8672C22.8379 47.8672 22.6445 47.918 22.4805 48.0195C22.3203 48.1172 22.1855 48.252 22.0762 48.4238C21.9707 48.5957 21.8906 48.7988 21.8359 49.0332C21.7812 49.2637 21.7539 49.5137 21.7539 49.7832ZM31.8086 44V53H30.1211V44H31.8086ZM31.5684 49.6074H31.1055C31.1094 49.166 31.168 48.7598 31.2812 48.3887C31.3945 48.0137 31.5566 47.6895 31.7676 47.416C31.9785 47.1387 32.2305 46.9238 32.5234 46.7715C32.8203 46.6191 33.1484 46.543 33.5078 46.543C33.8203 46.543 34.1035 46.5879 34.3574 46.6777C34.6152 46.7637 34.8359 46.9043 35.0195 47.0996C35.207 47.291 35.3516 47.543 35.4531 47.8555C35.5547 48.168 35.6055 48.5469 35.6055 48.9922V53H33.9062V48.9805C33.9062 48.6992 33.8652 48.4785 33.7832 48.3184C33.7051 48.1543 33.5898 48.0391 33.4375 47.9727C33.2891 47.9023 33.1055 47.8672 32.8867 47.8672C32.6445 47.8672 32.4375 47.9121 32.2656 48.002C32.0977 48.0918 31.9629 48.2168 31.8613 48.377C31.7598 48.5332 31.6855 48.7168 31.6387 48.9277C31.5918 49.1387 31.5684 49.3652 31.5684 49.6074ZM39.8066 53.1172C39.3145 53.1172 38.873 53.0391 38.4824 52.8828C38.0918 52.7227 37.7598 52.502 37.4863 52.2207C37.2168 51.9395 37.0098 51.6133 36.8652 51.2422C36.7207 50.8672 36.6484 50.4688 36.6484 50.0469V49.8125C36.6484 49.332 36.7168 48.8926 36.8535 48.4941C36.9902 48.0957 37.1855 47.75 37.4395 47.457C37.6973 47.1641 38.0098 46.9395 38.377 46.7832C38.7441 46.623 39.1582 46.543 39.6191 46.543C40.0684 46.543 40.4668 46.6172 40.8145 46.7656C41.1621 46.9141 41.4531 47.125 41.6875 47.3984C41.9258 47.6719 42.1055 48 42.2266 48.3828C42.3477 48.7617 42.4082 49.1836 42.4082 49.6484V50.3516H37.3691V49.2266H40.75V49.0977C40.75 48.8633 40.707 48.6543 40.6211 48.4707C40.5391 48.2832 40.4141 48.1348 40.2461 48.0254C40.0781 47.916 39.8633 47.8613 39.6016 47.8613C39.3789 47.8613 39.1875 47.9102 39.0273 48.0078C38.8672 48.1055 38.7363 48.2422 38.6348 48.418C38.5371 48.5938 38.4629 48.8008 38.4121 49.0391C38.3652 49.2734 38.3418 49.5312 38.3418 49.8125V50.0469C38.3418 50.3008 38.377 50.5352 38.4473 50.75C38.5215 50.9648 38.625 51.1504 38.7578 51.3066C38.8945 51.4629 39.0586 51.584 39.25 51.6699C39.4453 51.7559 39.666 51.7988 39.9121 51.7988C40.2168 51.7988 40.5 51.7402 40.7617 51.623C41.0273 51.502 41.2559 51.3203 41.4473 51.0781L42.2676 51.9688C42.1348 52.1602 41.9531 52.3438 41.7227 52.5195C41.4961 52.6953 41.2227 52.8398 40.9023 52.9531C40.582 53.0625 40.2168 53.1172 39.8066 53.1172ZM45.0566 48.043V53H43.3691V46.6602H44.957L45.0566 48.043ZM46.9668 46.6191L46.9375 48.1836C46.8555 48.1719 46.7559 48.1621 46.6387 48.1543C46.5254 48.1426 46.4219 48.1367 46.3281 48.1367C46.0898 48.1367 45.8828 48.168 45.707 48.2305C45.5352 48.2891 45.3906 48.377 45.2734 48.4941C45.1602 48.6113 45.0742 48.7539 45.0156 48.9219C44.9609 49.0898 44.9297 49.2812 44.9219 49.4961L44.582 49.3906C44.582 48.9805 44.623 48.6035 44.7051 48.2598C44.7871 47.9121 44.9062 47.6094 45.0625 47.3516C45.2227 47.0938 45.418 46.8945 45.6484 46.7539C45.8789 46.6133 46.1426 46.543 46.4395 46.543C46.5332 46.543 46.6289 46.5508 46.7266 46.5664C46.8242 46.5781 46.9043 46.5957 46.9668 46.6191ZM50.5645 53.1172C50.0723 53.1172 49.6309 53.0391 49.2402 52.8828C48.8496 52.7227 48.5176 52.502 48.2441 52.2207C47.9746 51.9395 47.7676 51.6133 47.623 51.2422C47.4785 50.8672 47.4062 50.4688 47.4062 50.0469V49.8125C47.4062 49.332 47.4746 48.8926 47.6113 48.4941C47.748 48.0957 47.9434 47.75 48.1973 47.457C48.4551 47.1641 48.7676 46.9395 49.1348 46.7832C49.502 46.623 49.916 46.543 50.377 46.543C50.8262 46.543 51.2246 46.6172 51.5723 46.7656C51.9199 46.9141 52.2109 47.125 52.4453 47.3984C52.6836 47.6719 52.8633 48 52.9844 48.3828C53.1055 48.7617 53.166 49.1836 53.166 49.6484V50.3516H48.127V49.2266H51.5078V49.0977C51.5078 48.8633 51.4648 48.6543 51.3789 48.4707C51.2969 48.2832 51.1719 48.1348 51.0039 48.0254C50.8359 47.916 50.6211 47.8613 50.3594 47.8613C50.1367 47.8613 49.9453 47.9102 49.7852 48.0078C49.625 48.1055 49.4941 48.2422 49.3926 48.418C49.2949 48.5938 49.2207 48.8008 49.1699 49.0391C49.123 49.2734 49.0996 49.5312 49.0996 49.8125V50.0469C49.0996 50.3008 49.1348 50.5352 49.2051 50.75C49.2793 50.9648 49.3828 51.1504 49.5156 51.3066C49.6523 51.4629 49.8164 51.584 50.0078 51.6699C50.2031 51.7559 50.4238 51.7988 50.6699 51.7988C50.9746 51.7988 51.2578 51.7402 51.5195 51.623C51.7852 51.502 52.0137 51.3203 52.2051 51.0781L53.0254 51.9688C52.8926 52.1602 52.7109 52.3438 52.4805 52.5195C52.2539 52.6953 51.9805 52.8398 51.6602 52.9531C51.3398 53.0625 50.9746 53.1172 50.5645 53.1172ZM56.0312 44.4688L55.8379 50.3926H54.4316L54.2324 44.4688H56.0312ZM54.1855 52.2266C54.1855 51.9766 54.2715 51.7695 54.4434 51.6055C54.6191 51.4375 54.8496 51.3535 55.1348 51.3535C55.4238 51.3535 55.6543 51.4375 55.8262 51.6055C55.998 51.7695 56.084 51.9766 56.084 52.2266C56.084 52.4688 55.998 52.6738 55.8262 52.8418C55.6543 53.0098 55.4238 53.0938 55.1348 53.0938C54.8496 53.0938 54.6191 53.0098 54.4434 52.8418C54.2715 52.6738 54.1855 52.4688 54.1855 52.2266Z" fill="#FFBFBF"/>
</svg>
