<svg width="250" height="261" viewBox="0 0 250 261" fill="none" xmlns="http://www.w3.org/2000/svg">
<circle cx="125" cy="125" r="125" fill="#FFEEEE"/>
<path d="M130.958 249.268C140.677 248.047 150.053 244.892 158.533 239.989C167.013 235.086 174.426 228.535 180.334 220.722C193.247 203.901 194.435 181.358 188.251 161.656C185.406 152.014 180.689 143.026 174.371 135.206C169.495 129.525 158.154 125.133 157.509 116.733C157.509 116.733 155.233 87.1395 119.697 56.4181C119.462 56.217 119.179 56.0821 118.875 56.0274C118.571 55.9727 118.258 56.0002 117.968 56.107C117.679 56.2138 117.423 56.3961 117.227 56.635C117.032 56.8738 116.904 57.1606 116.856 57.4656C114.842 70.6406 105.111 122.394 80.776 136.959C80.5059 137.112 80.1998 137.191 79.889 137.188C79.5782 137.184 79.274 137.098 79.0074 136.938C78.7409 136.778 78.5217 136.55 78.3723 136.278C78.2229 136.005 78.1487 135.698 78.1572 135.387C78.2171 133.637 78.5362 131.906 79.104 130.25C79.2302 129.904 79.2429 129.527 79.1401 129.173C79.0374 128.82 78.8246 128.508 78.5327 128.283C78.2408 128.059 77.8849 127.933 77.5167 127.924C77.1485 127.916 76.7872 128.025 76.4851 128.236C75.1836 129.118 73.9754 130.13 72.8791 131.257C69.3299 135.057 66.3939 139.387 64.1764 144.09C53.5599 166.511 57.73 197.092 70.4416 217.741C83.1532 238.389 106.28 251.927 130.958 249.268Z" fill="#E8505B"/>
<rect x="92.5667" y="205.433" width="66.8667" height="54.9667" fill="#8E542A"/>
<ellipse cx="92.2833" cy="232.916" rx="17.2833" ry="27.4833" fill="#F8DD98"/>
<ellipse cx="159.717" cy="232.916" rx="17.2833" ry="27.4833" fill="#8E542A"/>
<path d="M121.467 190.983L124.017 205.433H146.4L130.533 190.983H121.467Z" fill="#8E542A"/>
<ellipse cx="126" cy="190.983" rx="1.98333" ry="4.53333" transform="rotate(90 126 190.983)" fill="#F8DD98"/>
<path d="M91.9168 213.797C92.937 213.374 93.4207 212.204 92.9972 211.183C92.5738 210.163 91.4035 209.68 90.3833 210.103L91.9168 213.797ZM90.2871 256.254C91.2836 256.731 92.4777 256.31 92.9543 255.313C93.4309 254.317 93.0094 253.122 92.0129 252.646L90.2871 256.254ZM90.3833 210.103C81.8315 213.653 77.7354 223.391 77.6538 232.715C77.5721 242.069 81.5091 252.056 90.2871 256.254L92.0129 252.646C85.151 249.364 81.5797 241.218 81.6537 232.75C81.728 224.253 85.4519 216.481 91.9168 213.797L90.3833 210.103Z" fill="#CBA031"/>
<path d="M99.48 240.707C99.0882 241.74 99.6079 242.895 100.641 243.287C101.673 243.678 102.828 243.159 103.22 242.126L99.48 240.707ZM101.39 215.214C100.845 214.253 99.6248 213.915 98.6638 214.46C97.7028 215.005 97.3653 216.225 97.9099 217.186L101.39 215.214ZM103.22 242.126C106.52 233.427 106.537 224.296 101.39 215.214L97.9099 217.186C102.396 225.102 102.414 232.973 99.48 240.707L103.22 242.126Z" fill="#CBA031"/>
<path d="M95.9666 225.834C95.6833 222.339 93.5866 216.88 90.8666 219.6C84.6331 225.834 84.0667 240.567 89.7333 245.95" stroke="#CBA031" stroke-width="4" stroke-linecap="round"/>
<path d="M91.15 235.183C91.15 238.017 92.1134 241.077 93.7 241.983C95.2867 242.89 95.9667 235.75 95.9667 232.35" stroke="#CBA031" stroke-width="4" stroke-linecap="round"/>
</svg>
