<svg width="45" height="24" viewBox="0 0 45 24" fill="none" xmlns="http://www.w3.org/2000/svg">
<path d="M43.1464 22.8536C43.3417 23.0488 43.6583 23.0488 43.8536 22.8536C44.0488 22.6583 44.0488 22.3417 43.8536 22.1464L43.1464 22.8536ZM40 10.5C40 15.1944 36.1944 19 31.5 19V20C36.7467 20 41 15.7467 41 10.5H40ZM31.5 19C26.8056 19 23 15.1944 23 10.5H22C22 15.7467 26.2533 20 31.5 20V19ZM23 10.5C23 5.80558 26.8056 2 31.5 2V1C26.2533 1 22 5.25329 22 10.5H23ZM31.5 2C36.1944 2 40 5.80558 40 10.5H41C41 5.25329 36.7467 1 31.5 1V2ZM37.5104 17.2175L43.1464 22.8536L43.8536 22.1464L38.2175 16.5104L37.5104 17.2175Z" fill="#E8505B"/>
</svg>
