<svg width="250" height="251" viewBox="0 0 250 251" fill="none" xmlns="http://www.w3.org/2000/svg">
<circle cx="125" cy="125" r="125" fill="#D6FAFF"/>
<path d="M129.849 249.829C137.836 248.826 145.542 246.233 152.511 242.204C159.48 238.175 165.571 232.791 170.427 226.37C181.039 212.546 182.015 194.021 176.933 177.83C174.595 169.905 170.719 162.519 165.526 156.092C161.52 151.423 152.199 147.814 151.669 140.911C151.669 140.911 149.798 116.591 120.595 91.3436C120.402 91.1783 120.169 91.0675 119.919 91.0225C119.67 90.9776 119.412 91.0002 119.174 91.0879C118.936 91.1757 118.726 91.3255 118.565 91.5218C118.405 91.7181 118.299 91.9538 118.26 92.2045C116.605 103.032 108.608 145.563 88.6093 157.532C88.3873 157.659 88.1357 157.724 87.8803 157.721C87.6249 157.718 87.3749 157.647 87.1559 157.516C86.9368 157.384 86.7567 157.197 86.6339 156.973C86.5111 156.749 86.4501 156.496 86.4571 156.241C86.5064 154.803 86.7686 153.38 87.2352 152.019C87.3389 151.735 87.3493 151.425 87.2649 151.134C87.1805 150.844 87.0056 150.588 86.7657 150.403C86.5258 150.219 86.2334 150.115 85.9308 150.108C85.6282 150.101 85.3312 150.191 85.083 150.364C84.0134 151.089 83.0205 151.921 82.1196 152.847C79.2028 155.97 76.7899 159.528 74.9676 163.393C66.2429 181.819 69.6699 206.951 80.1164 223.92C90.5629 240.889 109.569 252.015 129.849 249.829Z" fill="#72CFDB"/>
</svg>
