<svg width="102" height="72" viewBox="0 0 102 72" fill="none" xmlns="http://www.w3.org/2000/svg">
<rect x="17.5667" y="16.4333" width="66.8667" height="54.9667" fill="#8E542A"/>
<ellipse cx="17.2833" cy="43.9167" rx="17.2833" ry="27.4833" fill="#F8DD98"/>
<ellipse cx="84.7167" cy="43.9167" rx="17.2833" ry="27.4833" fill="#8E542A"/>
<path d="M46.4667 1.9834L49.0167 16.4334H71.4L55.5333 1.9834H46.4667Z" fill="#8E542A"/>
<ellipse cx="51" cy="1.98333" rx="1.98333" ry="4.53333" transform="rotate(90 51 1.98333)" fill="#F8DD98"/>
<path d="M16.9168 24.7971C17.937 24.3737 18.4207 23.2034 17.9972 22.1832C17.5738 21.163 16.4035 20.6793 15.3833 21.1028L16.9168 24.7971ZM15.2871 67.2542C16.2836 67.7308 17.4777 67.3093 17.9543 66.3129C18.4309 65.3164 18.0094 64.1223 17.0129 63.6457L15.2871 67.2542ZM15.3833 21.1028C6.83147 24.6526 2.73538 34.3908 2.65385 43.715C2.57206 53.0692 6.50907 63.056 15.2871 67.2542L17.0129 63.6457C10.151 60.3639 6.57966 52.2174 6.6537 43.7499C6.728 35.2525 10.4519 27.4807 16.9168 24.7971L15.3833 21.1028Z" fill="#CBA031"/>
<path d="M24.48 51.7074C24.0882 52.7401 24.6079 53.8949 25.6407 54.2867C26.6734 54.6784 27.8282 54.1587 28.22 53.126L24.48 51.7074ZM26.3899 26.2139C25.8453 25.2529 24.6248 24.9154 23.6638 25.46C22.7028 26.0046 22.3653 27.2251 22.9099 28.1861L26.3899 26.2139ZM28.22 53.126C31.5196 44.4271 31.5369 35.2958 26.3899 26.2139L22.9099 28.1861C27.3963 36.1024 27.4137 43.9731 24.48 51.7074L28.22 53.126Z" fill="#CBA031"/>
<path d="M20.9666 36.8335C20.6832 33.3391 18.5865 27.8799 15.8665 30.6C9.63306 36.8337 9.06666 51.5667 14.7332 56.9502" stroke="#CBA031" stroke-width="4" stroke-linecap="round"/>
<path d="M16.15 46.1834C16.15 49.0168 17.1134 52.0768 18.7 52.9834C20.2867 53.8901 20.9667 46.7501 20.9667 43.3501" stroke="#CBA031" stroke-width="4" stroke-linecap="round"/>
</svg>
