<svg width="297" height="42" viewBox="0 0 297 42" fill="none" xmlns="http://www.w3.org/2000/svg">
<path d="M47.1464 31.8536C47.3417 32.0488 47.6583 32.0488 47.8536 31.8536C48.0488 31.6583 48.0488 31.3417 47.8536 31.1464L47.1464 31.8536ZM44 19.5C44 24.1944 40.1944 28 35.5 28V29C40.7467 29 45 24.7467 45 19.5H44ZM35.5 28C30.8056 28 27 24.1944 27 19.5H26C26 24.7467 30.2533 29 35.5 29V28ZM27 19.5C27 14.8056 30.8056 11 35.5 11V10C30.2533 10 26 14.2533 26 19.5H27ZM35.5 11C40.1944 11 44 14.8056 44 19.5H45C45 14.2533 40.7467 10 35.5 10V11ZM41.5104 26.2175L47.1464 31.8536L47.8536 31.1464L42.2175 25.5104L41.5104 26.2175Z" fill="#E8505B"/>
<rect x="1" y="1" width="295" height="40" rx="10" stroke="#E8505B"/>
</svg>
